<svg width="115" height="115" viewBox="0 0 115 115" fill="none" xmlns="http://www.w3.org/2000/svg">
<circle cx="57.5" cy="57.5" r="57.5" fill="white"/>
<path d="M28.0707 65.7539C28.0707 69.1423 30.6554 74.1959 33.9589 74.5282C36.7329 88.4798 45.8936 99.9702 57.5 100.136C69.0214 100.299 78.4293 88.4798 81.045 74.5243C84.3407 74.1882 86.9177 69.1345 86.9177 65.75" stroke="black" stroke-width="4" stroke-miterlimit="10" stroke-linecap="round"/>
<path d="M29.8364 72.9595C29.8364 72.9595 22.2714 75.6602 15 85.5705L30.4545 96.2727L26.5909 104H88.4091L84.5455 96.2727L100 85.5743C92.7286 75.6641 85.1636 72.9634 85.1636 72.9634" stroke="black" stroke-width="4" stroke-miterlimit="10" stroke-linecap="round"/>
<path d="M41.1568 70.6491C41.037 74.5861 43.73 78.4884 48.5557 78.782C51.9595 78.9907 55.8618 77.2752 55.8618 72.465C55.8618 69.1268 53.2423 68.6207 48.5557 68.2614C43.8691 67.902 41.2495 67.5968 41.1568 70.6491Z" fill="black"/>
<path d="M73.8432 70.6491C73.9629 74.5861 71.27 78.4884 66.4443 78.782C63.0404 78.9907 59.1382 77.2752 59.1382 72.465C59.1382 69.1268 61.7577 68.6207 66.4443 68.2614C71.1309 67.902 73.7504 67.5968 73.8432 70.6491Z" fill="black"/>
<path d="M31.0495 45.1298C21.2784 47.6102 15 51.4198 15 55.7045C15 63.173 34.0284 69.2273 57.5 69.2273C80.9716 69.2273 100 63.173 100 55.7045C100 51.412 93.6984 47.5986 83.9041 45.1182" stroke="black" stroke-width="4" stroke-miterlimit="10" stroke-linecap="round"/>
<path d="M68.8552 19C66.2666 19 62.2523 20.9318 57.5 20.9318C52.7477 20.9318 48.8068 19 46.1448 19C37.7066 19 33.6111 35.5943 30.4545 47.3475C30.4545 53.5332 46.392 53.7727 57.5 53.7727C68.6079 53.7727 84.5454 53.7727 84.5454 47.3514C80.9252 34.9259 77.2934 19 68.8552 19Z" stroke="black" stroke-width="4" stroke-miterlimit="10" stroke-linecap="round"/>
</svg>
